<?xml version="1.0" standalone="no"?>
<!DOCTYPE svg PUBLIC "-//W3C//DTD SVG 20010904//EN"
 "http://www.w3.org/TR/2001/REC-SVG-20010904/DTD/svg10.dtd">
<svg version="1.0" xmlns="http://www.w3.org/2000/svg"
 width="700.000000pt" height="700.000000pt" viewBox="0 0 700.000000 700.000000"
 preserveAspectRatio="xMidYMid meet">
<metadata>
Created by potrace 1.14, written by Peter Selinger 2001-2017
</metadata>
<g transform="translate(0.000000,700.000000) scale(0.100000,-0.100000)"
fill="#000000" stroke="none">
<path d="M1437 5054 c-1 -1 -63 -4 -137 -8 -74 -4 -148 -9 -165 -12 -25 -3
-128 -6 -510 -14 -20 0 -20 -7 -20 -1522 l1 -1523 242 -1 242 -1 0 513 c0 283
3 514 8 514 4 1 144 2 312 4 233 2 323 7 380 19 41 9 84 18 95 21 176 37 359
133 481 252 147 144 231 315 270 554 3 19 7 103 9 185 5 275 -45 479 -158 645
-36 52 -126 144 -178 182 -124 91 -324 160 -534 184 -47 5 -333 13 -338 8z
m308 -371 c295 -83 427 -278 426 -633 -1 -251 -47 -395 -164 -514 -94 -96
-219 -151 -392 -173 -72 -9 -346 -9 -430 0 -33 3 -68 6 -77 7 -17 0 -18 38
-18 649 0 358 4 652 8 655 12 7 52 14 130 22 37 3 69 8 71 10 2 2 88 2 190 0
146 -3 201 -8 256 -23z"/>
<path d="M3360 5015 c-4 -5 -11 -41 -14 -80 -10 -116 -15 -166 -26 -255 -10
-85 -14 -127 -26 -250 -3 -36 -7 -76 -9 -90 -2 -14 -7 -59 -10 -100 -3 -41 -8
-86 -10 -100 -2 -14 -6 -54 -10 -90 -3 -36 -8 -81 -10 -100 -2 -19 -7 -64 -10
-100 -4 -36 -8 -76 -10 -90 -2 -14 -7 -59 -10 -100 -4 -41 -8 -87 -10 -103 -2
-15 -6 -62 -10 -105 -4 -42 -8 -84 -10 -92 -2 -8 -7 -44 -10 -80 -3 -36 -7
-81 -10 -100 -2 -19 -7 -64 -10 -100 -3 -36 -8 -81 -10 -100 -5 -39 -12 -104
-20 -200 -3 -36 -8 -81 -10 -100 -8 -65 -14 -115 -20 -185 -3 -38 -8 -86 -11
-106 -5 -43 -10 -91 -18 -179 -4 -36 -10 -101 -15 -145 -5 -44 -7 -82 -4 -85
2 -3 105 -6 228 -6 l224 -1 5 26 c3 14 8 64 11 111 3 47 8 101 10 120 2 19 7
69 10 110 3 41 8 95 10 120 2 25 6 74 9 110 7 73 15 163 21 230 2 25 7 81 11
125 3 44 8 98 10 120 2 22 6 72 9 110 3 39 7 86 10 105 2 19 7 73 11 120 3 47
7 101 9 120 2 19 6 69 10 110 3 41 8 95 10 120 6 67 21 267 30 400 9 134 16
227 20 280 2 30 7 96 11 145 3 50 7 91 8 92 2 2 10 -27 20 -65 9 -37 19 -74
21 -82 2 -8 13 -49 24 -90 11 -41 31 -120 46 -175 15 -55 29 -107 31 -115 43
-179 121 -429 297 -950 118 -349 258 -765 312 -925 53 -159 99 -292 102 -295
5 -6 263 -8 280 -3 6 3 18 25 26 51 70 221 166 517 212 662 31 96 63 195 70
220 8 25 34 108 59 185 223 696 250 785 346 1173 56 227 104 411 106 410 1 -2
5 -53 9 -113 4 -61 8 -126 10 -145 2 -19 6 -87 10 -150 4 -63 9 -131 10 -150
2 -19 6 -84 9 -145 4 -60 9 -126 11 -145 2 -19 7 -64 10 -100 4 -36 8 -83 11
-105 2 -22 6 -67 9 -100 3 -33 7 -76 10 -95 5 -40 16 -149 20 -200 7 -80 16
-177 20 -210 2 -19 7 -64 10 -100 3 -36 8 -85 10 -110 3 -25 7 -67 10 -95 2
-27 7 -72 10 -100 3 -27 7 -76 10 -108 3 -31 7 -72 9 -90 2 -17 7 -68 11 -112
3 -44 8 -91 10 -105 2 -14 7 -61 11 -105 3 -44 8 -83 10 -86 2 -3 110 -6 240
-6 l236 1 -7 68 c-3 38 -8 76 -9 86 -2 9 -7 48 -11 85 -3 37 -8 76 -10 85 -1
9 -6 49 -9 87 -4 39 -9 77 -11 85 -2 8 -6 46 -10 83 -3 37 -8 77 -10 87 -2 10
-6 45 -10 77 -3 32 -8 74 -10 93 -3 19 -12 94 -20 165 -16 127 -21 167 -30
242 -2 21 -7 61 -10 88 -3 28 -10 82 -15 120 -8 62 -15 118 -25 222 -2 17 -6
50 -9 72 -3 23 -8 58 -10 79 -3 20 -10 78 -16 127 -6 50 -12 106 -14 125 -14
130 -17 158 -21 180 -3 14 -7 52 -10 85 -3 33 -8 67 -10 75 -2 8 -7 44 -10 80
-10 95 -13 119 -20 175 -3 28 -8 68 -11 90 -3 22 -7 51 -9 65 -2 14 -6 52 -10
85 -9 85 -16 129 -21 134 -2 3 -148 5 -323 5 l-319 1 -27 -90 c-16 -49 -34
-110 -41 -135 -7 -25 -20 -67 -27 -95 -15 -49 -62 -208 -113 -375 -14 -46 -27
-91 -29 -100 -4 -18 -202 -680 -245 -820 -16 -52 -45 -171 -65 -265 -20 -93
-40 -186 -45 -205 -5 -19 -11 -46 -14 -60 -17 -88 -39 -187 -45 -197 -4 -7
-22 49 -40 125 -18 75 -51 211 -73 300 -22 90 -41 171 -43 180 -2 10 -42 141
-90 292 -48 151 -95 302 -105 335 -10 33 -45 146 -78 250 -63 199 -81 256
-163 520 -28 88 -64 201 -80 250 l-29 90 -331 0 c-208 0 -334 -4 -339 -10z"/>
</g>
</svg>
